<?xml version="1.0" encoding="UTF-8"?>
<svg width="20px" height="20px" viewBox="0 0 20 20" version="1.1" xmlns="http://www.w3.org/2000/svg" xmlns:xlink="http://www.w3.org/1999/xlink">
    <!-- Generator: Sketch 48.2 (47327) - http://www.bohemiancoding.com/sketch -->
    <title>be</title>
    <desc>Created with Sketch.</desc>
    <defs></defs>
    <g id="main-PC-layout" stroke="none" stroke-width="1" fill="none" fill-rule="evenodd" transform="translate(-150.000000, -720.000000)">
        <g id="Group" transform="translate(80.000000, 720.000000)" fill="#EDEDED" fill-rule="nonzero">
            <g id="be" transform="translate(70.000000, 0.000000)">
                <path d="M7.73069307,7.2950495 L7.44554455,7.2950495 L5.54455446,7.2950495 L5.54455446,9.03762376 L7.58811881,9.03762376 C7.95247525,9.03762376 8.26930693,8.94257426 8.26930693,8.1029703 C8.26930693,7.26336634 7.73069307,7.2950495 7.73069307,7.2950495 Z" id="Shape"></path>
                <path d="M7.73069307,10.3049505 L5.54455446,10.3049505 L5.54455446,12.5227723 L7.46138614,12.5227723 C7.49306931,12.5227723 7.54059406,12.5227723 7.6039604,12.5227723 C7.92079208,12.5227723 8.52277228,12.3960396 8.52277228,11.4455446 C8.53861386,10.3207921 7.73069307,10.3049505 7.73069307,10.3049505 Z" id="Shape"></path>
                <path d="M14.9544554,0.00792079208 L5.00594059,0.00792079208 C2.24950495,0.00792079208 0,2.25742574 0,5.01386139 L0,14.9782178 C0,17.7188119 2.24950495,19.9683168 5.00594059,19.9683168 L14.970297,19.9683168 C17.7267327,19.9683168 19.9762376,17.7188119 19.9762376,14.9623762 L19.9762376,5.01386139 C19.960396,2.25742574 17.7108911,0.00792079208 14.9544554,0.00792079208 Z M11.7227723,6.34455446 L15.049505,6.34455446 L15.049505,7.13663366 L11.7227723,7.13663366 L11.7227723,6.34455446 Z M10.170297,11.5564356 C10.170297,14.0277228 7.73069307,14.1069307 7.73069307,14.1069307 L5.48118812,14.1069307 L5.41782178,14.1069307 L3.8019802,14.1069307 L3.8019802,5.86930693 L5.4019802,5.86930693 L5.46534653,5.86930693 L7.71485149,5.86930693 C8.93465347,5.86930693 9.9009901,6.56633663 9.9009901,8.02376238 C9.9009901,9.48118812 8.72871287,9.56039604 8.72871287,9.56039604 C10.2811881,9.54455446 10.170297,11.5564356 10.170297,11.5564356 Z M16.1425743,11.4138614 L12.1346535,11.4138614 C12.1346535,12.9980198 13.4970297,12.8712871 13.4970297,12.8712871 C14.780198,12.8712871 14.7326733,12.0475248 14.7326733,12.0475248 L16.0950495,12.0475248 C16.0950495,14.2653465 13.449505,14.170297 13.449505,14.170297 C10.2811881,14.170297 10.4871287,11.049505 10.4871287,11.049505 C10.4871287,11.049505 10.4871287,7.91287129 13.449505,7.91287129 C16.570297,7.8970297 16.1425743,11.4138614 16.1425743,11.4138614 Z" id="Shape"></path>
                <path d="M13.4811939,9.05346535 C12.29307,9.05346535 12.1188119,10.3049505 12.1188119,10.3049505 L14.6534867,10.3049505 C14.6534867,10.3049505 14.6693177,9.05346535 13.4811939,9.05346535 Z" id="Shape"></path>
            </g>
        </g>
    </g>
</svg>