<?xml version="1.0" encoding="UTF-8"?>
<svg width="378px" height="378px" viewBox="0 0 378 378" version="1.1" xmlns="http://www.w3.org/2000/svg" xmlns:xlink="http://www.w3.org/1999/xlink">
    <!-- Generator: Sketch 48.2 (47327) - http://www.bohemiancoding.com/sketch -->
    <title>feather dev</title>
    <desc>Created with Sketch.</desc>
    <defs></defs>
    <g id="main-PC-layout" stroke="none" stroke-width="1" fill="none" fill-rule="evenodd" transform="translate(-1020.000000, -391.000000)" opacity="0.200000003">
        <g id="feather-white" transform="translate(1019.000000, 391.000000)" fill="#EDEDED">
            <path d="M378.824742,155.525773 L378.824742,0.783505155 L224.474227,0.783505155 L224.474227,135.546392 L189.216495,171.587629 L189.216495,64.2474227 L166.886598,64.2474227 L166.886598,193.917526 L126.927835,234.659794 L126.927835,126.14433 L104.597938,126.14433 L104.597938,256.989691 L68.556701,293.814433 L68.556701,184.515464 L46.2268041,184.515464 L46.2268041,316.536082 L1.56701031,361.979381 L17.2371134,377.649485 L63.0721649,330.639175 L192.350515,330.639175 L192.350515,308.309278 L85.4020619,308.309278 L120.659794,272.268041 L251.113402,272.268041 L251.113402,249.938144 L142.597938,249.938144 L181.773196,209.979381 L313.402062,209.979381 L313.402062,187.649485 L203.71134,187.649485 L236.226804,154.742268 L378.824742,154.742268 L378.824742,155.525773 Z M356.886598,22.7216495 L356.886598,133.195876 L246.804124,133.195876 L246.412371,132.804124 L246.412371,22.7216495 L356.886598,22.7216495 L356.886598,22.7216495 Z" id="Shape"></path>
        </g>
    </g>
</svg>