<?xml version="1.0" encoding="UTF-8"?>
<svg width="20px" height="20px" viewBox="0 0 20 20" version="1.1" xmlns="http://www.w3.org/2000/svg" xmlns:xlink="http://www.w3.org/1999/xlink">
    <!-- Generator: Sketch 48.2 (47327) - http://www.bohemiancoding.com/sketch -->
    <title>envelope</title>
    <desc>Created with Sketch.</desc>
    <defs></defs>
    <g id="main-PC-layout" stroke="none" stroke-width="1" fill="none" fill-rule="evenodd" transform="translate(-1342.000000, -721.000000)">
        <g id="mail-icon" transform="translate(1341.000000, 449.000000)" fill="#EDEDED" fill-rule="nonzero">
            <g id="envelope" transform="translate(1.000000, 272.000000)">
                <path d="M1.91960534,6.29714896 C2.17260264,6.52924734 2.93523003,7.21858007 4.20752659,8.36479138 C5.47986224,9.51100269 6.4545586,10.3935559 7.13165476,11.0125019 C7.20604504,11.0803476 7.36409018,11.2278294 7.60586835,11.4551507 C7.84768561,11.6826244 8.04861364,11.8664431 8.20849605,12.0066575 C8.36849574,12.1468212 8.56191828,12.3040606 8.78895912,12.4781217 C9.01592179,12.6520303 9.22986713,12.7828429 9.43075606,12.8694415 C9.63168408,12.9567515 9.81767932,13 9.98878087,13 L10,13 L10.0112582,13 C10.1823598,13 10.3684332,12.9567007 10.5693612,12.8694415 C10.770172,12.7828429 10.9843128,12.6518778 11.21108,12.4781217 C11.4379645,12.3038573 11.631387,12.1467703 11.7913867,12.0066575 C11.9513864,11.8664431 12.152158,11.6826244 12.3940535,11.4551507 C12.6357926,11.2276262 12.7940331,11.0803476 12.8684234,11.0125019 C13.5528296,10.3935559 15.2940625,8.82161915 18.0915747,6.29684403 C18.6347058,5.80373024 19.0884748,5.20872084 19.4529989,4.51222239 C19.8177966,3.81602887 20,3.08568379 20,2.32159374 C20,1.68308177 19.8231912,1.13650455 19.4697298,0.681912893 C19.1163076,0.227219596 18.6977206,0 18.2142424,0 L1.78564029,0 C1.21276088,0 0.771891968,0.251461097 0.463111726,0.75438329 C0.154370575,1.25740713 0,1.88616151 0,2.64059562 C0,3.24998729 0.204680763,3.91035219 0.613846833,4.62128373 C1.02297381,5.3322661 1.45836998,5.89093866 1.91960534,6.29714896 Z" id="Shape"></path>
                <path d="M18.8837571,7.27668042 C16.4435419,9.44839411 14.5906295,11.1361741 13.3259191,12.3396605 C12.9018211,12.7504002 12.5577814,13.0710352 12.2935654,13.3007945 C12.0293495,13.530708 11.6779607,13.7655045 11.2388908,14.0050813 C10.7999773,14.2450178 10.3909293,14.3646263 10.011395,14.3646263 C9.60934431,14.3646263 9.20006176,14.2450178 8.76114826,14.0050813 C8.32223475,13.7655045 7.9706114,13.530708 7.70647366,13.3007945 C7.4424141,13.0710352 7.09825713,12.7504002 6.6741982,12.3396605 C5.66967732,11.3711762 3.82075223,9.68329344 1.12734473,7.27668042 C0.703129428,6.90515912 0.327386944,6.47930771 0,6 L0,17.6516749 C0,18.2977766 0.174775764,18.8502783 0.524522748,19.3101053 C0.87419155,19.7700865 1.29465411,20 1.78575407,20 L18.2143632,20 C18.7053459,20 19.1257694,19.7700865 19.4754773,19.3101053 C19.8253024,18.8501241 20,18.297828 20,17.6516749 L20,6 C19.6800013,6.46938746 19.3080897,6.89523886 18.8837571,7.27668042 Z" id="Shape"></path>
            </g>
        </g>
    </g>
</svg>