<?xml version="1.0" encoding="UTF-8"?>
<svg width="20px" height="20px" viewBox="0 0 20 20" version="1.1" xmlns="http://www.w3.org/2000/svg" xmlns:xlink="http://www.w3.org/1999/xlink">
    <!-- Generator: Sketch 48.2 (47327) - http://www.bohemiancoding.com/sketch -->
    <title>fb</title>
    <desc>Created with Sketch.</desc>
    <defs></defs>
    <g id="main-PC-layout" stroke="none" stroke-width="1" fill="none" fill-rule="evenodd" transform="translate(-115.000000, -720.000000)">
        <g id="Group" transform="translate(80.000000, 720.000000)" fill="#EDEDED" fill-rule="nonzero">
            <g id="fb" transform="translate(35.000000, 0.000000)">
                <path d="M18.8797267,1.09899772 C18.1472893,0.366378132 17.2648292,0 16.2330296,0 L3.74615034,0 C2.7143508,0 1.83189066,0.366378132 1.0991344,1.09899772 C0.366514806,1.83175399 0.00013667426,2.71416856 0.00013667426,3.74601367 L0.00013667426,16.2327562 C0.00013667426,17.2645102 0.366514806,18.147016 1.0991344,18.8797722 C1.83189066,19.6125285 2.7143508,19.9789066 3.74615034,19.9789066 L16.2328929,19.9789066 C17.2646925,19.9789066 18.1471526,19.6125285 18.87959,18.8797722 C19.6123462,18.147016 19.9787244,17.2645558 19.9787244,16.2327562 L19.9787244,3.74601367 C19.9786788,2.71416856 19.6123007,1.83161732 18.8797267,1.09899772 Z M17.0002278,10.2755353 L14.7240091,10.2755353 L14.7240091,18.5348519 L11.3161731,18.5348519 L11.3161731,10.2755353 L9.61230068,10.2755353 L9.61230068,7.42687927 L11.3162187,7.42687927 L11.3162187,5.72291572 C11.3162187,4.50022779 11.6024601,3.57681093 12.1746696,2.9523918 C12.7468338,2.32797267 13.6919362,2.01594533 15.0102961,2.01594533 L17.2865148,2.01594533 L17.2865148,4.86451025 L15.8559453,4.86451025 C15.3701594,4.86451025 15.0601822,4.94892939 14.9257859,5.11817768 C14.7914351,5.28724374 14.7240547,5.58423691 14.7240547,6.00920273 L14.7240547,7.42692482 L17.2996355,7.42692482 L17.0002278,10.2755353 Z" id="Shape"></path>
            </g>
        </g>
    </g>
</svg>