<?xml version="1.0" encoding="UTF-8"?>
<svg width="60px" height="60px" viewBox="0 0 60 60" version="1.1" xmlns="http://www.w3.org/2000/svg" xmlns:xlink="http://www.w3.org/1999/xlink">
    <!-- Generator: Sketch 48.2 (47327) - http://www.bohemiancoding.com/sketch -->
    <title>logo-red</title>
    <desc>Created with Sketch.</desc>
    <defs></defs>
    <g id="Desktop-HD-Copy-3" stroke="none" stroke-width="1" fill="none" fill-rule="evenodd" transform="translate(-80.000000, -80.000000)">
        <g id="stamp-red-thin" transform="translate(80.000000, 80.000000)">
            <rect id="Rectangle-12" stroke="#F74936" stroke-width="3" x="1.5" y="1.5" width="57" height="57"></rect>
            <g id="Group" stroke-width="1" fill-rule="evenodd" transform="translate(10.534351, 18.320611)" fill="#F74936">
                <path d="M3.44648231,2.80639109 L3.57637258,4.31193737 C3.92940943,3.77706957 4.36570314,3.35941672 4.88526681,3.05896629 C5.40483048,2.75851586 5.9843351,2.60829289 6.62379808,2.60829289 C7.68290863,2.60829289 8.51053449,2.94835806 9.10670049,3.6284986 C9.70286649,4.30863913 10.000945,5.3915651 10.000945,6.87730899 L10.000945,13.5235034 L6.62379808,13.5235034 L6.62379808,6.86740408 C6.62379808,6.2532966 6.49557435,5.81913574 6.23912305,5.56490845 C5.98267176,5.31068116 5.60466156,5.18356942 5.10508111,5.18356942 C4.79201069,5.18356942 4.51391508,5.23969668 4.27078593,5.35195289 C4.02765678,5.46420909 3.81950138,5.61938446 3.64631349,5.81748365 L3.64631349,13.5235034 L0.279158103,13.5235034 L0.279158103,2.80639109 L3.44648231,2.80639109 Z M16.775222,13.7315065 C15.1832257,13.7315065 13.9126451,13.236266 12.9634423,12.2457701 C12.0142394,11.2552741 11.5396451,10.0138712 11.5396451,8.521524 L11.5396451,8.14513743 C11.5396451,6.51412081 11.9709431,5.18192377 12.833552,4.14850636 C13.6961609,3.11508894 14.9301061,2.60168959 16.5354246,2.60829289 C18.0008606,2.60829289 19.1498784,3.04410456 19.9825125,3.91574098 C20.8151466,4.78737739 21.2314574,5.96935147 21.2314574,7.46169866 L21.2314574,9.21486768 L15.0566739,9.21486768 L15.0366908,9.27429714 C15.1099626,9.82237155 15.3364356,10.2730404 15.7161168,10.6263173 C16.0957979,10.9795942 16.6020318,11.15623 17.2348337,11.15623 C17.8742967,11.15623 18.3855264,11.1067059 18.7685381,11.0076563 C19.1515497,10.9086068 19.6361355,10.7369234 20.2223099,10.492601 L21.0216346,12.5330124 C20.5486985,12.8763844 19.9375542,13.1619731 19.1881835,13.3897871 C18.4388129,13.6176012 17.6345004,13.7315065 16.775222,13.7315065 L16.775222,13.7315065 Z M16.5354246,5.18356942 C16.0491663,5.18356942 15.6844781,5.35525281 15.4413489,5.69862473 C15.1982198,6.04199665 15.0500131,6.50091955 14.9967245,7.07540718 L15.0266992,7.12493173 L17.9342429,7.12493173 L17.9342429,6.86740408 C17.9342429,6.32593297 17.8210063,5.90993092 17.5945299,5.61938545 C17.3680534,5.32883998 17.0150218,5.18356942 16.5354246,5.18356942 L16.5354246,5.18356942 Z M28.2954896,10.5124109 C28.2954896,10.2482786 28.1439524,10.012214 27.8408736,9.80420981 C27.5377948,9.59620567 26.9865993,9.40966507 26.1872706,9.24458241 C24.9283279,9.00026008 23.9791393,8.62057568 23.3396763,8.10551779 C22.7002133,7.59045991 22.3804866,6.88721835 22.3804866,5.99577202 C22.3804866,5.05149924 22.780145,4.25086038 23.5794737,3.59383141 C24.3788024,2.93680245 25.4612105,2.60829289 26.8267304,2.60829289 C28.2655221,2.60829289 29.4112094,2.92689764 30.2638267,3.56411668 C31.116444,4.20133573 31.5227633,5.02508582 31.4827969,6.03539166 L31.4628138,6.09482112 L28.1855824,6.09482112 C28.1855824,5.67220952 28.0773416,5.35195398 27.8608568,5.13404488 C27.6443719,4.91613577 27.2963361,4.80718285 26.8167388,4.80718285 C26.463702,4.80718285 26.1672887,4.90292936 25.9274901,5.09442524 C25.6876915,5.28592112 25.567794,5.53023978 25.567794,5.82738856 C25.567794,6.11133072 25.7060092,6.35234778 25.9824437,6.55044697 C26.2588782,6.74854615 26.8167346,6.92683274 27.6560298,7.08531209 C28.9749222,7.34284103 29.9524199,7.72747785 30.5885524,8.23923408 C31.2246848,8.7509903 31.5427463,9.47569228 31.5427463,10.4133618 C31.5427463,11.3774445 31.1114483,12.1714801 30.2488394,12.7954926 C29.3862305,13.419505 28.2455389,13.7315065 26.8267304,13.7315065 C25.3546333,13.7315065 24.1906284,13.3617269 23.3346805,12.6221566 C22.4787327,11.8825863 22.0707481,11.0571854 22.1107145,10.1459292 L22.1306977,10.0864997 L25.1881147,10.0864997 C25.2014369,10.5949543 25.3563045,10.9614323 25.6527222,11.1859447 C25.94914,11.4104571 26.3704465,11.5227117 26.9166544,11.5227117 C27.3696074,11.5227117 27.7126475,11.4352192 27.945785,11.2602315 C28.1789226,11.0852439 28.2954896,10.8359729 28.2954896,10.5124109 L28.2954896,10.5124109 Z M37.1280277,0.141970373 L37.1280277,2.80639109 L38.956483,2.80639109 L38.956483,5.12413997 L37.1280277,5.12413997 L37.1280277,10.0369752 C37.1280277,10.4199669 37.2062942,10.6956508 37.3628294,10.8640352 C37.5193646,11.0324195 37.7308505,11.1166104 37.9972934,11.1166104 C38.2104477,11.1166104 38.3786373,11.1100071 38.5018671,11.0968005 C38.625097,11.0835939 38.7832951,11.0571811 38.9764662,11.0175613 L39.2162636,13.4937887 C38.8432435,13.5796317 38.5068644,13.6407113 38.2071161,13.6770295 C37.9073678,13.7133477 37.5543363,13.7315065 37.1480109,13.7315065 C36.0356117,13.7315065 35.1929987,13.4376638 34.6201464,12.8499696 C34.0472942,12.2622753 33.7608724,11.3312231 33.7608724,10.056785 L33.7608724,5.12413997 L32.2421554,5.12413997 L32.2421554,2.80639109 L33.7608724,2.80639109 L33.7608724,0.141970373 L37.1280277,0.141970373 Z" id="nest"></path>
                <path d="M5.06979213,17.9678184 C4.89616825,17.7440648 4.67624795,17.5719492 4.41002466,17.4514665 C4.14380137,17.3309837 3.86890101,17.2707433 3.58531533,17.2707433 C3.23806755,17.2707433 2.9241024,17.3352866 2.64341045,17.4643753 C2.3627185,17.5934639 2.1225424,17.7698824 1.92287493,17.993636 C1.72320746,18.2173896 1.56839515,18.4798659 1.45843335,18.7810727 C1.34847156,19.0822795 1.29349149,19.4049963 1.29349149,19.7492326 C1.29349149,20.0705199 1.34557787,20.3745908 1.4497522,20.6614544 C1.55392653,20.948318 1.70439831,21.2007542 1.90117205,21.4187706 C2.09794579,21.6367869 2.33812189,21.8089025 2.62170757,21.9351225 C2.90529326,22.0613425 3.22649263,22.1244516 3.58531533,22.1244516 C3.93835056,22.1244516 4.24797518,22.0527368 4.51419847,21.9093049 C4.78042177,21.7658731 5.00612943,21.5650716 5.19132824,21.3068943 L5.89450147,21.8318521 C5.84820176,21.8949621 5.7671785,21.9853228 5.65142924,22.1029369 C5.53567998,22.220551 5.38231452,22.3381633 5.19132824,22.4557774 C5.00034197,22.5733915 4.77029377,22.6766609 4.50117675,22.7655886 C4.23205972,22.8545163 3.92098826,22.8989795 3.56795302,22.8989795 C3.08180614,22.8989795 2.64341241,22.8071845 2.25275866,22.6235918 C1.86210492,22.4399991 1.52933079,22.1990372 1.25442631,21.9006991 C0.97952182,21.6023609 0.769729437,21.2653012 0.625042866,20.8895098 C0.480356294,20.5137185 0.408014093,20.1336299 0.408014093,19.7492326 C0.408014093,19.2787763 0.48614367,18.8441844 0.642405167,18.445444 C0.798666665,18.0467035 1.01714011,17.7024723 1.29783206,17.4127401 C1.57852401,17.1230078 1.91563867,16.8978232 2.30918614,16.7371796 C2.70273362,16.576536 3.13678682,16.4962153 3.61135878,16.4962153 C4.01648118,16.4962153 4.41436328,16.5736674 4.80501703,16.7285737 C5.19567077,16.8834801 5.5154233,17.1215733 5.7642842,17.4428606 L5.06979213,17.9678184 Z M10.6874614,22.8989795 C10.2186769,22.8989795 9.78751735,22.8172246 9.39396987,22.6537123 C9.0004224,22.4902001 8.66330774,22.2650155 8.38261579,21.9781519 C8.10192384,21.6912882 7.88200355,21.3527942 7.72284832,20.9626597 C7.56369309,20.5725252 7.48411667,20.150842 7.48411667,19.6975974 C7.48411667,19.2443529 7.56369309,18.8226697 7.72284832,18.4325352 C7.88200355,18.0424006 8.10192384,17.7039066 8.38261579,17.417043 C8.66330774,17.1301794 9.0004224,16.9049948 9.39396987,16.7414825 C9.78751735,16.5779703 10.2186769,16.4962153 10.6874614,16.4962153 C11.1562459,16.4962153 11.5874054,16.5779703 11.9809528,16.7414825 C12.3745003,16.9049948 12.711615,17.1301794 12.9923069,17.417043 C13.2729989,17.7039066 13.4929192,18.0424006 13.6520744,18.4325352 C13.8112296,18.8226697 13.890806,19.2443529 13.890806,19.6975974 C13.890806,20.150842 13.8112296,20.5725252 13.6520744,20.9626597 C13.4929192,21.3527942 13.2729989,21.6912882 12.9923069,21.9781519 C12.711615,22.2650155 12.3745003,22.4902001 11.9809528,22.6537123 C11.5874054,22.8172246 11.1562459,22.8989795 10.6874614,22.8989795 L10.6874614,22.8989795 Z M10.6874614,22.1244516 C11.0404966,22.1244516 11.3588023,22.0599082 11.642388,21.9308196 C11.9259736,21.801731 12.1690434,21.6281811 12.3716046,21.4101647 C12.5741658,21.1921484 12.730425,20.9354093 12.8403868,20.6399397 C12.9503486,20.3444702 13.0053287,20.0303592 13.0053287,19.6975974 C13.0053287,19.3648356 12.9503486,19.0507247 12.8403868,18.7552551 C12.730425,18.4597856 12.5741658,18.2030465 12.3716046,17.9850301 C12.1690434,17.7670138 11.9259736,17.5934639 11.642388,17.4643753 C11.3588023,17.3352866 11.0404966,17.2707433 10.6874614,17.2707433 C10.3344261,17.2707433 10.0161204,17.3352866 9.73253476,17.4643753 C9.44894908,17.5934639 9.20587928,17.7670138 9.00331808,17.9850301 C8.80075688,18.2030465 8.64449773,18.4597856 8.53453593,18.7552551 C8.42457414,19.0507247 8.36959407,19.3648356 8.36959407,19.6975974 C8.36959407,20.0303592 8.42457414,20.3444702 8.53453593,20.6399397 C8.64449773,20.9354093 8.80075688,21.1921484 9.00331808,21.4101647 C9.20587928,21.6281811 9.44894908,21.801731 9.73253476,21.9308196 C10.0161204,22.0599082 10.3344261,22.1244516 10.6874614,22.1244516 L10.6874614,22.1244516 Z M16.0533772,16.6511209 L16.8867677,16.6511209 L16.8867677,21.969546 L19.7081417,21.969546 L19.7081417,22.7440739 L16.0533772,22.7440739 L16.0533772,16.6511209 Z M24.3448409,22.8989795 C23.8760564,22.8989795 23.4448969,22.8172246 23.0513494,22.6537123 C22.657802,22.4902001 22.3206873,22.2650155 22.0399954,21.9781519 C21.7593034,21.6912882 21.5393831,21.3527942 21.3802279,20.9626597 C21.2210727,20.5725252 21.1414962,20.150842 21.1414962,19.6975974 C21.1414962,19.2443529 21.2210727,18.8226697 21.3802279,18.4325352 C21.5393831,18.0424006 21.7593034,17.7039066 22.0399954,17.417043 C22.3206873,17.1301794 22.657802,16.9049948 23.0513494,16.7414825 C23.4448969,16.5779703 23.8760564,16.4962153 24.3448409,16.4962153 C24.8136254,16.4962153 25.2447849,16.5779703 25.6383324,16.7414825 C26.0318799,16.9049948 26.3689945,17.1301794 26.6496865,17.417043 C26.9303784,17.7039066 27.1502987,18.0424006 27.309454,18.4325352 C27.4686092,18.8226697 27.5481856,19.2443529 27.5481856,19.6975974 C27.5481856,20.150842 27.4686092,20.5725252 27.309454,20.9626597 C27.1502987,21.3527942 26.9303784,21.6912882 26.6496865,21.9781519 C26.3689945,22.2650155 26.0318799,22.4902001 25.6383324,22.6537123 C25.2447849,22.8172246 24.8136254,22.8989795 24.3448409,22.8989795 L24.3448409,22.8989795 Z M24.3448409,22.1244516 C24.6978762,22.1244516 25.0161818,22.0599082 25.2997675,21.9308196 C25.5833532,21.801731 25.826423,21.6281811 26.0289842,21.4101647 C26.2315454,21.1921484 26.3878045,20.9354093 26.4977663,20.6399397 C26.6077281,20.3444702 26.6627082,20.0303592 26.6627082,19.6975974 C26.6627082,19.3648356 26.6077281,19.0507247 26.4977663,18.7552551 C26.3878045,18.4597856 26.2315454,18.2030465 26.0289842,17.9850301 C25.826423,17.7670138 25.5833532,17.5934639 25.2997675,17.4643753 C25.0161818,17.3352866 24.6978762,17.2707433 24.3448409,17.2707433 C23.9918057,17.2707433 23.6735,17.3352866 23.3899143,17.4643753 C23.1063286,17.5934639 22.8632588,17.7670138 22.6606976,17.9850301 C22.4581364,18.2030465 22.3018773,18.4597856 22.1919155,18.7552551 C22.0819537,19.0507247 22.0269736,19.3648356 22.0269736,19.6975974 C22.0269736,20.0303592 22.0819537,20.3444702 22.1919155,20.6399397 C22.3018773,20.9354093 22.4581364,21.1921484 22.6606976,21.4101647 C22.8632588,21.6281811 23.1063286,21.801731 23.3899143,21.9308196 C23.6735,22.0599082 23.9918057,22.1244516 24.3448409,22.1244516 L24.3448409,22.1244516 Z M29.7107568,16.6511209 L31.8723633,16.6511209 C32.2659108,16.6511209 32.5900039,16.7041899 32.8446522,16.8103294 C33.0993006,16.916469 33.3004119,17.0512929 33.4479922,17.2148051 C33.5955725,17.3783174 33.6982985,17.5619074 33.7561731,17.7655806 C33.8140477,17.9692537 33.8429846,18.1657524 33.8429846,18.3550824 C33.8429846,18.5501496 33.8082603,18.7380425 33.7388108,18.9187666 C33.6693612,19.0994907 33.569529,19.2630005 33.4393111,19.4093009 C33.3090932,19.5556014 33.1499403,19.6789509 32.9618478,19.7793532 C32.7737552,19.8797554 32.5639629,19.9414302 32.3324643,19.9643793 L34.0773757,22.7440739 L33.0356376,22.7440739 L31.4730304,20.0590438 L30.5441473,20.0590438 L30.5441473,22.7440739 L29.7107568,22.7440739 L29.7107568,16.6511209 Z M30.5441473,19.3361511 L31.6379723,19.3361511 C31.8000212,19.3361511 31.9606209,19.3232424 32.1197761,19.2974247 C32.2789314,19.2716069 32.4207221,19.2242752 32.5451525,19.1554279 C32.669583,19.0865806 32.7694152,18.9876141 32.8446522,18.8585255 C32.9198893,18.7294369 32.9575072,18.5616242 32.9575072,18.3550824 C32.9575072,18.1485406 32.9198893,17.9807278 32.8446522,17.8516392 C32.7694152,17.7225506 32.669583,17.6235841 32.5451525,17.5547368 C32.4207221,17.4858896 32.2789314,17.4385578 32.1197761,17.4127401 C31.9606209,17.3869223 31.8000212,17.3740137 31.6379723,17.3740137 L30.5441473,17.3740137 L30.5441473,19.3361511 Z M36.1618165,21.4704058 C36.3122905,21.6941594 36.5047208,21.8591035 36.739113,21.9652431 C36.9735053,22.0713826 37.2151282,22.1244516 37.4639891,22.1244516 C37.6028882,22.1244516 37.7446789,22.1029371 37.8893655,22.0599076 C38.0340521,22.016878 38.1657149,21.9523347 38.2843579,21.8662756 C38.4030009,21.7802165 38.4999394,21.6740786 38.5751764,21.5478586 C38.6504135,21.4216386 38.6880314,21.2753403 38.6880314,21.1089594 C38.6880314,20.8737312 38.6127955,20.6944442 38.4623215,20.5710928 C38.3118474,20.4477414 38.1252046,20.3444721 37.9023872,20.2612816 C37.6795699,20.1780912 37.4365001,20.0977706 37.1731706,20.0203174 C36.909841,19.9428642 36.6667712,19.835292 36.4439539,19.6975974 C36.2211366,19.5599029 36.0344937,19.3748786 35.8840197,19.1425191 C35.7335456,18.9101595 35.6583097,18.5960486 35.6583097,18.2001768 C35.6583097,18.0223213 35.6973745,17.8329942 35.7755053,17.6321896 C35.853636,17.4313851 35.9766178,17.2477951 36.1444542,17.0814142 C36.3122906,16.9150333 36.5278704,16.7759065 36.7911999,16.6640297 C37.0545295,16.5521529 37.3713883,16.4962153 37.741786,16.4962153 C38.0774588,16.4962153 38.3986582,16.5421128 38.7053937,16.6339092 C39.0121292,16.7257056 39.2812422,16.9121641 39.5127407,17.1932905 L38.835611,17.804307 C38.7314366,17.6436633 38.5838585,17.5145766 38.3928723,17.417043 C38.201886,17.3195094 37.9848594,17.2707433 37.741786,17.2707433 C37.5102874,17.2707433 37.3178572,17.3008635 37.1644894,17.3611049 C37.0111216,17.4213462 36.8881399,17.4987982 36.7955405,17.5934632 C36.7029411,17.6881282 36.6378331,17.7899633 36.6002146,17.8989715 C36.5625961,18.0079797 36.5437871,18.1083804 36.5437871,18.2001768 C36.5437871,18.458354 36.619023,18.656287 36.769497,18.7939815 C36.9199711,18.9316761 37.106614,19.0435512 37.3294313,19.1296103 C37.5522486,19.2156694 37.7953184,19.2931214 38.058648,19.3619687 C38.3219775,19.4308159 38.5650473,19.5269138 38.7878646,19.6502652 C39.010682,19.7736165 39.1973248,19.9399949 39.3477989,20.1494054 C39.4982729,20.3588158 39.5735088,20.6471095 39.5735088,21.0142949 C39.5735088,21.3068958 39.5170819,21.5708064 39.4042263,21.8060346 C39.2913708,22.0412627 39.1394522,22.2391957 38.9484659,22.3998393 C38.7574797,22.5604829 38.531772,22.6838324 38.2713362,22.7698915 C38.0109003,22.8559506 37.7331063,22.8989795 37.4379457,22.8989795 C37.0443982,22.8989795 36.6711124,22.8301333 36.3180772,22.6924387 C35.965042,22.5547442 35.6843542,22.3424683 35.4760056,22.0556047 L36.1618165,21.4704058 Z" id="COLORS"></path>
            </g>
        </g>
    </g>
</svg>