<?xml version="1.0" encoding="UTF-8"?>
<svg width="60px" height="60px" viewBox="0 0 60 60" version="1.1" xmlns="http://www.w3.org/2000/svg" xmlns:xlink="http://www.w3.org/1999/xlink">
    <!-- Generator: Sketch 48.2 (47327) - http://www.bohemiancoding.com/sketch -->
    <title>feather dev</title>
    <desc>Created with Sketch.</desc>
    <defs></defs>
    <g id="Home-Page" stroke="none" stroke-width="1" fill="none" fill-rule="evenodd" transform="translate(-493.000000, -384.000000)">
        <g id="Group-3" transform="translate(493.000000, 369.000000)" fill="#EDEDED">
            <g id="feather-white" transform="translate(0.000000, 15.000000)">
                <path d="M59.814433,24.556701 L59.814433,0.12371134 L35.443299,0.12371134 L35.443299,21.4020619 L29.8762887,27.0927835 L29.8762887,10.1443299 L26.3505155,10.1443299 L26.3505155,30.6185567 L20.0412371,37.0515464 L20.0412371,19.9175258 L16.5154639,19.9175258 L16.5154639,40.5773196 L10.8247423,46.3917526 L10.8247423,29.1340206 L7.29896907,29.1340206 L7.29896907,49.9793814 L0.24742268,57.1546392 L2.72164948,59.628866 L9.95876289,52.2061856 L30.371134,52.2061856 L30.371134,48.6804124 L13.4845361,48.6804124 L19.0515464,42.9896907 L39.6494845,42.9896907 L39.6494845,39.4639175 L22.5154639,39.4639175 L28.7010309,33.1546392 L49.4845361,33.1546392 L49.4845361,29.628866 L32.1649485,29.628866 L37.2989691,24.4329897 L59.814433,24.4329897 L59.814433,24.556701 Z M56.3505155,3.58762887 L56.3505155,21.0309278 L38.9690722,21.0309278 L38.9072165,20.9690722 L38.9072165,3.58762887 L56.3505155,3.58762887 L56.3505155,3.58762887 Z" id="Shape"></path>
            </g>
        </g>
    </g>
</svg>